<?xml version="1.0" encoding="UTF-8" standalone="no"?>
<!-- Created with Inkscape (http://www.inkscape.org/) -->

<svg
   version="1.1"
   id="svg1"
   width="32"
   height="32"
   viewBox="0 0 32 32"
   xmlns="http://www.w3.org/2000/svg"
   xmlns:svg="http://www.w3.org/2000/svg">
  <defs
     id="defs1">
    <clipPath
       clipPathUnits="userSpaceOnUse"
       id="clipPath5">
      <rect
         style="fill:#000000;fill-opacity:0.481928;stroke:none;stroke-width:60;stroke-dasharray:none;stroke-opacity:1"
         id="rect5"
         width="432"
         height="719"
         x="505"
         y="-50"
         ry="0"
         transform="rotate(-27.116327)" />
    </clipPath>
  </defs>
  <g
     id="g1"
     transform="matrix(0.07194687,0,0,0.07194687,-11.267684,-6.6369484)">
    <g
       id="g3"
       transform="matrix(0.96902775,0.28309462,-0.28309462,0.96902775,78.952286,-101.88117)"
       style="fill:#fcfcfc;fill-opacity:1;stroke:none;stroke-opacity:1">
      <rect
         style="display:inline;vector-effect:non-scaling-stroke;fill:#fcfcfc;fill-opacity:1;stroke:none;stroke-width:0.90261;stroke-dasharray:none;stroke-opacity:1;-inkscape-stroke:hairline"
         id="rect2"
         width="44.050251"
         height="232"
         x="306.94974"
         y="256"
         ry="21.75" />
      <path
         id="path2"
         style="vector-effect:non-scaling-stroke;fill:#fcfcfc;fill-opacity:1;stroke:none;stroke-width:1;stroke-dasharray:none;stroke-opacity:1;-inkscape-stroke:hairline"
         d="m 321.83151,180.85648 a 55,55 0 0 0 -44.47503,63.81201 55,55 0 0 0 63.81201,44.47503 55,55 0 0 0 44.47503,-63.81201 55,55 0 0 0 -16.38891,-30.3256 l -15.47452,39.71371 c -5.07405,13.02194 -17.70382,20.06513 -28.31754,15.79026 -10.61371,-4.27487 -15.07386,-18.20054 -9.99981,-31.22247 l 15.30739,-39.2831 a 55,55 0 0 0 -8.93862,0.85217 z" />
    </g>
    <rect
       style="display:inline;fill:none;fill-opacity:1;stroke:#fcfcfc;stroke-width:45.2641;stroke-dasharray:none;stroke-opacity:1"
       id="rect1"
       width="283.60965"
       height="395.03091"
       x="179.24098"
       y="117.11877"
       ry="26.858852" />
    <rect
       style="display:inline;fill:none;fill-opacity:1;stroke:#fcfcfc;stroke-width:45.2641;stroke-dasharray:none;stroke-opacity:1"
       id="rect3"
       width="283.60965"
       height="395.03091"
       x="341.01495"
       y="-79.691841"
       ry="26.858852"
       transform="rotate(27.116327,19.29766,-13.749213)"
       clip-path="url(#clipPath5)" />
  </g>
</svg>
